<?xml version="1.0" encoding="UTF-8"?>
<svg xmlns="http://www.w3.org/2000/svg" xmlns:xlink="http://www.w3.org/1999/xlink" width="75pt" height="62pt" viewBox="0 0 75 62" version="1.1">
<g id="surface1">
<path style=" stroke:none;fill-rule:nonzero;fill:rgb(11.372549%,60.784314%,94.117647%);fill-opacity:1;" d="M 67.121094 15.589844 C 67.167969 16.246094 67.167969 16.90625 67.167969 17.574219 C 67.167969 37.851562 51.804688 61.242188 23.710938 61.242188 L 23.710938 61.230469 C 15.414062 61.242188 7.289062 58.855469 0.300781 54.351562 C 1.507812 54.496094 2.722656 54.570312 3.9375 54.570312 C 10.816406 54.578125 17.496094 52.257812 22.90625 47.988281 C 16.371094 47.863281 10.640625 43.582031 8.636719 37.332031 C 10.925781 37.773438 13.285156 37.683594 15.53125 37.066406 C 8.40625 35.621094 3.28125 29.328125 3.28125 22.023438 C 3.28125 21.957031 3.28125 21.890625 3.28125 21.828125 C 5.402344 23.015625 7.78125 23.675781 10.210938 23.75 C 3.503906 19.242188 1.433594 10.269531 5.484375 3.253906 C 13.238281 12.84375 24.679688 18.671875 36.960938 19.289062 C 35.730469 13.960938 37.414062 8.371094 41.378906 4.625 C 47.53125 -1.183594 57.207031 -0.886719 62.988281 5.292969 C 66.410156 4.613281 69.6875 3.351562 72.6875 1.566406 C 71.546875 5.117188 69.160156 8.136719 65.972656 10.054688 C 69 9.695312 71.957031 8.878906 74.742188 7.636719 C 72.691406 10.726562 70.109375 13.414062 67.121094 15.589844 Z M 67.121094 15.589844 "/>
</g>
</svg>
